<svg width="192" height="157" viewBox="0 0 192 157" fill="none" xmlns="http://www.w3.org/2000/svg">
<path fill-rule="evenodd" clip-rule="evenodd" d="M122.5 107C128.519 107 134.366 106.261 139.954 104.87L142.955 64.3639C144.329 45.8104 129.646 30 111.042 30H85.9581C67.3538 30 52.6712 45.8104 54.0456 64.3639L57.046 104.87C62.6344 106.261 68.481 107 74.5 107H122.5ZM80.331 37C72.282 37 65.8906 43.7708 66.3542 51.8064L67.7932 76.7488C68.19 83.6262 73.8828 89 80.7716 89H116.228C123.117 89 128.81 83.6262 129.207 76.7487L130.646 51.8064C131.109 43.7707 124.718 37 116.669 37H80.331Z" fill="#2B2B2B"/>
<path d="M24.5 89.5L168.5 89L153.391 103.912C143.259 113.911 130.612 121.304 116.529 123.377C102.274 125.476 89.9354 125.568 75.4339 123.486C61.0464 121.42 48.2047 113.695 38.0327 103.313L24.5 89.5Z" fill="#2B2B2B"/>
<path d="M2 26.5L57 79.5L58.5 93.5L24.5 89.5L2 26.5Z" fill="#2B2B2B"/>
<path d="M190.5 26.5L135.5 79.5L134 93.5L168.5 89L190.5 26.5Z" fill="#2B2B2B"/>
</svg>
