<svg width="192" height="157" viewBox="0 0 192 157" fill="none" xmlns="http://www.w3.org/2000/svg">
<path fill-rule="evenodd" clip-rule="evenodd" d="M192 0.502332V5.5C192 58.5193 149.019 101.5 96 101.5C42.9807 101.5 0 58.5193 0 5.5V0.502332C0.172781 0.500778 0.345755 0.5 0.518917 0.5C1.39477 0.5 2.2658 0.519913 3.13154 0.559293C3.11955 1.03778 3.11351 1.51805 3.11351 2C3.11351 28.2335 21.0028 49.5 43.0703 49.5C51.1019 49.5 58.5801 46.6829 64.8438 41.8346C73.6733 35.951 84.4143 32.5 96 32.5C107.586 32.5 118.327 35.951 127.156 41.8346C133.42 46.6829 140.898 49.5 148.93 49.5C170.997 49.5 188.886 28.2335 188.886 2C188.886 1.53705 188.881 1.07564 188.87 0.615874C189.906 0.549882 190.949 0.511777 192 0.502332Z" fill="#BCBCBC"/>
<path d="M48.6563 37.1444C65.9286 37.1444 94.8493 16.9069 97.8242 33.9212C97.9397 34.5817 98 35.2709 98 35.9897C98 44.2797 87.6194 51 74.8144 51C63.0321 51 35.8686 48.9314 35 34.2657C38.8304 36.0759 43.5506 37.1444 48.6563 37.1444Z" fill="#2B2B2B"/>
<path d="M143.344 37.1444C126.071 37.1444 97.1507 16.9069 94.1758 33.9212C94.0603 34.5817 94 35.2709 94 35.9897C94 44.2797 104.381 51 117.186 51C128.968 51 156.131 48.9314 157 34.2657C153.17 36.0759 148.449 37.1444 143.344 37.1444Z" fill="#2B2B2B"/>
<path d="M38.4 56L40.4757 60M63.3081 71L66.9405 68M59.1568 48.5L59.6757 53.5M126.616 69.5L128.692 65.5M65.9027 86L68.4973 90M151.524 53.5L152.043 59M166.573 42L168.649 46M74.2054 35L76.2811 39.5M17.1243 42.5L20.7568 39M133.881 45L132.324 49.5M140.627 68L138.032 62M125.578 85L126.616 90M160.865 79.5L163.459 83.5M25.946 74.5L21.2757 80M22.3135 56L18.1622 60M71.0919 99L68.4973 104" stroke="#2B2B2B" stroke-width="3"/>
</svg>
