<svg width="192" height="157" viewBox="0 0 192 157" fill="none" xmlns="http://www.w3.org/2000/svg">
<path fill-rule="evenodd" clip-rule="evenodd" d="M192 5V0.00233154C190.949 0.0117774 189.906 0.0498821 188.87 0.115874C188.881 0.575642 188.886 1.03705 188.886 1.5C188.886 27.7335 170.997 49 148.93 49C140.898 49 133.42 46.1829 127.156 41.3346C118.327 35.451 107.586 32 96 32C84.4143 32 73.6733 35.451 64.8438 41.3346C58.5801 46.1829 51.1019 49 43.0703 49C21.0028 49 3.11351 27.7335 3.11351 1.5C3.11351 1.01805 3.11955 0.537785 3.13154 0.059293C2.2658 0.0199125 1.39477 0 0.518917 0C0.345755 0 0.172781 0.00077833 0 0.00233156V5C0 58.0193 42.9807 101 96 101C149.019 101 192 58.0193 192 5ZM131.805 56.4194C131.805 64.3738 123.893 71.2701 112.328 74.6687C108.645 70.5762 102.703 67.9194 96 67.9194C89.297 67.9194 83.3552 70.5762 79.6723 74.6687C68.1075 71.2701 60.1946 64.3738 60.1946 56.4194C60.1946 45.0975 76.2252 35.9194 96 35.9194C115.775 35.9194 131.805 45.0975 131.805 56.4194Z" fill="#2B2B2B"/>
</svg>
