<svg width="192" height="157" viewBox="0 0 192 157" fill="none" xmlns="http://www.w3.org/2000/svg">
<path fill-rule="evenodd" clip-rule="evenodd" d="M192 13V11.3383C191.499 11.5324 191.029 11.8074 190.61 12.156L146.505 48.842C144.21 50.7503 140.778 50.2214 138.882 47.9168C128.907 35.7902 113.407 28 96 28C77.4912 28 61.1379 36.8076 51.2906 50.2709C49.4511 52.7858 45.8439 53.459 43.4483 51.4664L0.0281982 15.3506C1.27617 67.2839 43.7664 109 96 109C149.019 109 192 66.0194 192 13ZM132 56.5V66C132 73.1797 126.18 79 119 79H116.164C115.281 70.5518 106.591 63.9194 96.0001 63.9194C85.4095 63.9194 76.7189 70.5518 75.8361 79H73C65.8203 79 60 73.1797 60 66V56.5V56H60.0105C60.4767 44.9092 76.4113 36 96 36C115.589 36 131.523 44.9092 131.99 56H132V56.5Z" fill="#2B2B2B"/>
</svg>
