<svg width="201" height="157" viewBox="0 0 201 157" fill="none" xmlns="http://www.w3.org/2000/svg">
<path fill-rule="evenodd" clip-rule="evenodd" d="M200.151 57.3676V0.114816C198.951 0.0386727 197.74 0 196.519 0C195.293 0 194.076 0.0390309 192.87 0.115874C192.881 0.575642 192.886 1.03705 192.886 1.5C192.886 27.7335 174.997 49 152.93 49C144.898 49 137.42 46.1829 131.156 41.3346C122.327 35.451 111.586 32 100 32C88.4143 32 77.6732 35.451 68.8437 41.3347C62.58 46.1829 55.1019 49 47.0703 49C25.0028 49 7.1135 27.7335 7.1135 1.5C7.1135 1.01805 7.11954 0.537785 7.13153 0.059293C6.26579 0.0199125 5.39476 0 4.51891 0C3.29831 0 2.08708 0.0386727 0.886475 0.114816V57.3676C0.886475 112.393 45.4935 157 100.519 157C155.544 157 200.151 112.393 200.151 57.3676ZM135.805 56.4194C135.805 64.3738 127.893 71.2701 116.328 74.6687C112.645 70.5762 106.703 67.9194 100 67.9194C93.297 67.9194 87.3552 70.5762 83.6723 74.6687C72.1075 71.2701 64.1946 64.3738 64.1946 56.4194C64.1946 45.0975 80.2252 35.9194 100 35.9194C119.775 35.9194 135.805 45.0975 135.805 56.4194Z" fill="#2B2B2B"/>
<path fill-rule="evenodd" clip-rule="evenodd" d="M74.347 31.8686C66.7825 34.4601 58.9469 37.1444 52.6563 37.1444C47.5506 37.1444 42.8304 36.076 39 34.2657C39.8686 48.9315 67.0321 51 78.8144 51C88.2598 51 96.3861 47.3435 100 42.0976C103.614 47.3435 111.74 51 121.186 51C132.968 51 160.131 48.9315 161 34.2657C157.17 36.076 152.449 37.1444 147.344 37.1444C141.053 37.1444 133.218 34.4601 125.653 31.8686C114.69 28.113 104.297 24.5524 100 29.6399C95.7035 24.5524 85.3099 28.113 74.347 31.8686Z" fill="#2B2B2B"/>
</svg>
