<svg width="228" height="234" viewBox="0 0 228 234" fill="none" xmlns="http://www.w3.org/2000/svg">
<path fill-rule="evenodd" clip-rule="evenodd" d="M12 166.901L12 164.911C12 106.293 59.5191 58.7741 118.137 58.7741C174.695 58.7741 220.921 103.013 224.099 158.776C216.603 161.292 208.538 162.661 200.136 162.661C174.703 162.661 152.351 150.116 139.542 131.175C120.687 154.111 84.1354 169.661 42.136 169.661C31.6909 169.661 21.5828 168.699 12 166.901Z" fill="#2B2B2B"/>
<path d="M118.053 113.055C94.7525 113.236 75.7101 69.5195 75.5202 45.0179C75.3304 20.5163 94.065 0.507431 117.365 0.326893C140.665 0.146355 159.708 19.8625 159.897 44.3641C160.087 68.8657 141.353 112.875 118.053 113.055Z" fill="#2B2B2B"/>
<path d="M29 160.661L12 159.161L10.6709 208.67C10.3033 222.363 21.3028 233.661 35 233.661L29 160.661Z" fill="#2B2B2B"/>
<path d="M207 159.661L224 158.161L225.329 207.67C225.697 221.362 214.697 232.661 201 232.661L207 159.661Z" fill="#2B2B2B"/>
<path d="M140 133.161C147.5 122.661 150.586 112.277 147.5 96.6613" stroke="white" stroke-width="3"/>
<path d="M39 44.5764L79.6334 66.0572" stroke="#2B2B2B" stroke-width="3"/>
<path d="M185.633 46.5764L145 68.0572" stroke="#2B2B2B" stroke-width="3"/>
<path d="M80 66.1294L97.5216 75.3922" stroke="white" stroke-width="3"/>
</svg>
