<svg width="228" height="190" viewBox="0 0 228 190" fill="none" xmlns="http://www.w3.org/2000/svg">
<path fill-rule="evenodd" clip-rule="evenodd" d="M21 144.901L21 136.903C21 85.5409 62.6375 43.9033 114 43.9033C165.363 43.9033 207 85.5409 207 136.903L207 144.882C206.502 144.896 206.002 144.903 205.5 144.903C204.992 144.903 204.486 144.896 203.982 144.882C203.994 144.391 204 143.898 204 143.403C204 117.17 186.763 95.9034 165.5 95.9033C158.453 95.9033 151.847 98.2395 146.166 102.318C145.368 102.488 144.61 102.802 143.939 103.276C135.354 109.338 124.847 112.903 113.5 112.903C102.337 112.903 91.9873 109.452 83.4797 103.569C77.4444 98.7204 70.2388 95.9033 62.5 95.9033C41.237 95.9033 24 117.17 24 143.403C24 143.866 24.0054 144.328 24.0161 144.787C23.0181 144.853 22.0125 144.892 21 144.901Z" fill="#2B2B2B"/>
<path d="M132.787 31.7742C124.437 33.0357 116.306 40.4536 116.54 51.4218" stroke="#2B2B2B" stroke-width="3"/>
<path d="M106 31.7742C106 38.4408 111.04 45.6631 120 46.7742" stroke="#2B2B2B" stroke-width="3"/>
</svg>
