<svg width="228" height="247" viewBox="0 0 228 247" fill="none" xmlns="http://www.w3.org/2000/svg">
<path fill-rule="evenodd" clip-rule="evenodd" d="M12 144.603C14.8102 88.5686 61.1328 44 117.865 44C174.537 44 220.821 88.474 223.721 144.424C223.541 144.77 223.207 145.026 222.801 145.094C199.99 148.971 179.92 151.67 160.999 153.261C158.312 153.486 155.948 151.516 155.658 148.834L148.865 85.9999V149.43C148.865 152.075 146.804 154.265 144.163 154.399C102.949 156.483 65.1011 153.098 12.6485 145.034C12.3724 144.991 12.1386 144.828 12 144.603Z" fill="#2B2B2B"/>
<path d="M12 145H28L36 247H12V145Z" fill="#2B2B2B"/>
<path d="M207 145H224V247H199L207 145Z" fill="#2B2B2B"/>
</svg>
