<svg width="228" height="206" viewBox="0 0 228 206" fill="none" xmlns="http://www.w3.org/2000/svg">
<path fill-rule="evenodd" clip-rule="evenodd" d="M21 193.293V154.452C21 106.698 56.9927 67.35 103.33 62.0572C93.0193 48.3051 79.6317 40 65 40C32.4152 40 6 81.1898 6 132C6 155.543 11.6714 177.021 21 193.293ZM207 191.503C215.732 175.461 221 154.69 221 132C221 81.1898 194.585 40 162 40C147.404 40 134.046 48.2645 123.746 61.9562C170.528 66.8279 207 106.381 207 154.452V191.503Z" fill="#2B2B2B"/>
<path fill-rule="evenodd" clip-rule="evenodd" d="M51.875 150C67.4742 150 83.7773 141.724 99.2977 143.291C103.925 143.757 108.668 144 113.5 144C118.486 144 123.377 143.742 128.143 143.245C143.782 141.616 160.251 150 175.975 150C193.579 150 207.85 130.972 207.85 107.5C207.85 100.572 206.607 94.0318 204.402 88.2534C204.134 87.5509 204 86.8046 204 86.0527C204 54.0493 163.482 15.9999 113.5 15.9999C63.5182 15.9999 23 54.0493 23 86.0527C23 88.0796 22.7417 90.1033 22.1721 92.0485C20.7697 96.8375 20 102.049 20 107.5C20 130.972 34.2709 150 51.875 150Z" fill="#2B2B2B"/>
<path d="M134.991 27.4575C108.146 2.32597 68.3528 0.565513 49.3246 47.7278" stroke="#2B2B2B" stroke-width="3"/>
<path d="M23.4497 170.117C31.9237 160.39 33.7613 143.456 22.1202 130.462" stroke="#2B2B2B" stroke-width="3"/>
<path d="M73.3652 119.665C74.1847 132.539 84.7909 145.868 102.205 146.914" stroke="white" stroke-width="3"/>
<path d="M25.9441 113C21.0801 124.948 24.8302 141.564 40.0541 150.083" stroke="white" stroke-width="3"/>
<path d="M108.301 88C100.32 99.1814 91.2639 123.721 95.301 149" stroke="white" stroke-width="3"/>
<path d="M142.155 126C141.77 134.553 138.402 141.512 133.551 146.5" stroke="white" stroke-width="3"/>
<path d="M154.938 114C153.529 127.789 145.195 139.186 133.49 147.5" stroke="white" stroke-width="3"/>
<path d="M60.5701 40.9116C49.6166 35.9823 33.754 39.5226 24.8238 54.4884" stroke="#2B2B2B" stroke-width="3"/>
<path d="M186.732 155.022C202.947 138.795 209.385 110.097 192.304 87.6244" stroke="#2B2B2B" stroke-width="3"/>
<path d="M222.691 97.0623C217.641 74.6857 196.825 53.9076 168.702 56.3352" stroke="#2B2B2B" stroke-width="3"/>
<path d="M134.806 51.4951C134.806 18.4999 113.5 -9.00006 74.4952 6.80664" stroke="#2B2B2B" stroke-width="3"/>
<path d="M121.669 47.0078C133.543 24.1014 155.438 10.1741 177.5 20.4838" stroke="#2B2B2B" stroke-width="3"/>
<path d="M139.362 27.9811C171.138 18.989 203.65 34.3733 199.462 80.5653" stroke="#2B2B2B" stroke-width="3"/>
</svg>
