<svg width="228" height="190" viewBox="0 0 228 190" fill="none" xmlns="http://www.w3.org/2000/svg">
<path fill-rule="evenodd" clip-rule="evenodd" d="M24 144.563C24.0054 144.562 24.0107 144.562 24.0161 144.562C24.0054 144.102 24 143.64 24 143.178C24 116.944 41.237 95.6775 62.5 95.6775C70.2388 95.6775 77.4444 98.4946 83.4797 103.343C91.9873 109.227 102.337 112.678 113.5 112.678C124.847 112.678 135.354 109.112 143.939 103.05C144.61 102.576 145.368 102.263 146.166 102.093C151.847 98.0137 158.453 95.6776 165.5 95.6776C186.756 95.6776 203.989 116.931 204 143.153V138C204 88.2944 163.706 48 114 48C64.2944 48 24 88.2944 24 138L24 143.178L24 144.563ZM204 143.202V144.657C203.994 144.656 203.988 144.656 203.982 144.656C203.994 144.173 204 143.688 204 143.202Z" fill="#BCBCBC"/>
<path d="M52.4 72L54.4756 76M77.3081 87L80.9405 84M73.1567 64.5L73.6756 69.5M140.616 85.5L142.692 81.5M95.9027 86L98.4973 90M165.524 69.5L166.043 75M180.573 87L182.649 91M97.2054 63L99.281 67.5M119.124 58.5L122.757 55M147.881 61L146.324 65.5M154.627 84L152.032 78M131.578 93L132.616 98M166.865 87.5L169.459 91.5M44.9459 90.5L40.2756 96M124.313 72L120.162 76M115.092 97L112.497 102" stroke="#2B2B2B" stroke-width="3"/>
</svg>
