<svg width="228" height="190" viewBox="0 0 228 190" fill="none" xmlns="http://www.w3.org/2000/svg">
<path fill-rule="evenodd" clip-rule="evenodd" d="M208.162 89.2814C220.332 101.829 228 120.133 228 140.516C228 159.266 221.512 176.256 211 188.625V144.995C210.502 145.009 210.002 145.016 209.5 145.016C208.992 145.016 208.486 145.009 207.982 144.995C207.994 144.504 208 144.011 208 143.516C208 117.283 190.763 96.0163 169.5 96.0163C162.453 96.0163 155.847 98.3525 150.166 102.431C149.368 102.601 148.61 102.915 147.939 103.389C139.354 109.451 128.847 113.016 117.5 113.016C106.337 113.016 95.9873 109.565 87.4797 103.682C81.4444 98.8334 74.2388 96.0163 66.5 96.0163C45.237 96.0163 28 117.283 28 143.516C28 143.979 28.0054 144.441 28.016 144.9C27.0181 144.966 26.0125 145.005 25 145.014V189.774C13.9012 177.319 7 159.853 7 140.516C7 117.419 16.846 96.9921 31.9308 84.584C42.0838 45.7067 77.4414 17.0163 119.5 17.0163C163.235 17.0163 199.725 48.0401 208.162 89.2814Z" fill="#2B2B2B"/>
</svg>
