<svg width="285" height="287" viewBox="0 0 285 287" fill="none" xmlns="http://www.w3.org/2000/svg">
<path fill-rule="evenodd" clip-rule="evenodd" d="M247.099 151.788L247.099 149.798C247.099 91.1803 199.58 43.6611 140.962 43.6611C84.404 43.6611 38.1781 87.9001 35 143.663C42.4963 146.179 50.5618 147.548 58.9633 147.548C84.3959 147.548 106.749 135.003 119.558 116.062C138.413 138.998 174.964 154.548 216.963 154.548C227.408 154.548 237.517 153.586 247.099 151.788Z" fill="#2B2B2B"/>
<path d="M52 145.548L35 144.048L33.6709 193.557C33.3033 207.25 44.3028 218.548 58 218.548L52 145.548Z" fill="#2B2B2B"/>
<path d="M230 144.548L247 143.048L248.329 192.557C248.697 206.25 237.697 217.548 224 217.548L230 144.548Z" fill="#2B2B2B"/>
<path d="M119.099 118.048C111.599 107.548 108.513 97.1645 111.599 81.5483" stroke="white" stroke-width="3"/>
<path d="M90.1924 152.807L96.63 151.328C97.6879 151.085 98.7623 150.921 99.8444 150.837C123.021 149.04 127.826 117.146 106.208 108.601L78.0673 97.4775C61.5125 90.9339 43.0342 100.766 39.2124 118.152L33.6736 143.35C32.5693 148.373 30.4569 153.12 27.4642 157.302L17.3732 171.406L9.42131 185.096C5.71958 191.469 5.01062 199.148 7.48301 206.091C10.0717 213.361 8.88113 221.408 5.62288 228.403C-30.244 305.404 118.779 307.031 78.6115 228.987C73.7675 219.575 71.4805 208.675 74.5799 198.554L75.8804 194.307C77.2495 189.837 77.078 185.036 75.3934 180.674C70.8139 168.817 77.8044 155.653 90.1924 152.807Z" fill="#2B2B2B"/>
<path d="M197.29 174.727L199.148 169.909C202.365 161.56 196.6 152.478 187.676 151.836C184.65 151.618 181.788 150.374 179.566 148.308L176.747 145.689C163.787 133.646 167.669 112.227 184.031 105.499L195.911 100.613C200.101 98.89 204.605 98.0627 209.134 98.1843L210.034 98.2085C227.249 98.6709 241.832 111.031 245.109 127.937L248.224 144.007C249.805 152.164 254.016 159.578 260.212 165.114L267.086 171.255C267.805 171.898 268.57 172.487 269.376 173.017C276.187 177.497 279.519 185.721 277.747 193.679L275.688 202.923C273.769 211.54 275.708 220.551 279.374 228.582C316.499 309.928 155.986 303.536 202.715 217.687C207.003 209.81 206.91 199.876 201.109 193.036L200.212 191.979C196.156 187.196 195.035 180.58 197.29 174.727Z" fill="#2B2B2B"/>
</svg>
