<svg width="267" height="226" viewBox="0 0 267 226" fill="none" xmlns="http://www.w3.org/2000/svg">
<path fill-rule="evenodd" clip-rule="evenodd" d="M237.211 115.751L264.107 181.956C272.656 202.998 257.173 226 234.46 226H217L222.832 151.641C219.212 151.878 215.541 152 211.827 152C169.828 152 133.277 136.449 114.422 113.514C101.613 132.455 79.26 145 53.8275 145C51.7388 145 49.671 144.915 47.6275 144.75L54.0001 226H32.3739C8.93021 226 -6.55555 201.623 3.4072 180.401L36.2278 110.49C51.1807 69.9897 90.1314 41.1128 135.827 41.1128C183.477 41.1128 223.793 72.5133 237.211 115.751Z" fill="#2B2B2B"/>
</svg>
