<svg width="229" height="190" viewBox="0 0 229 190" fill="none" xmlns="http://www.w3.org/2000/svg">
<path fill-rule="evenodd" clip-rule="evenodd" d="M22 144.336L22 136.339C22 84.9762 63.6375 43.3386 115 43.3386C166.362 43.3386 208 84.9762 208 136.339V144.318C207.502 144.332 207.002 144.339 206.5 144.339C205.992 144.339 205.486 144.331 204.982 144.317C204.994 143.826 205 143.333 205 142.839C205 116.605 187.763 95.3386 166.5 95.3386C159.453 95.3386 152.847 97.6748 147.166 101.754C146.368 101.924 145.61 102.237 144.939 102.711C136.354 108.773 125.847 112.339 114.5 112.339C103.337 112.339 92.9873 108.888 84.4797 103.004C78.4444 98.1557 71.2388 95.3386 63.5 95.3386C42.237 95.3386 25 116.605 25 142.839C25 143.302 25.0054 143.763 25.016 144.223C24.0181 144.289 23.0125 144.327 22 144.336Z" fill="#2B2B2B"/>
<path d="M114.787 22C106.437 23.2615 98.3058 30.6795 98.5396 41.6476" stroke="#2B2B2B" stroke-width="3"/>
<path d="M17.7867 91C9.43706 92.2615 1.30583 99.6795 1.53957 110.648" stroke="#2B2B2B" stroke-width="3"/>
<path d="M168.787 34C160.437 35.2615 152.306 42.6795 152.54 53.6476" stroke="#2B2B2B" stroke-width="3"/>
<path d="M107 31.2095C107 37.8761 112.04 45.0984 121 46.2095" stroke="#2B2B2B" stroke-width="3"/>
<circle cx="50.5" cy="63.5" r="15.5" fill="#2B2B2B"/>
<circle cx="22" cy="102" r="13" fill="#2B2B2B"/>
<circle cx="27" cy="115" r="13" fill="#2B2B2B"/>
<circle cx="166" cy="95" r="13" fill="#2B2B2B"/>
<ellipse cx="193.5" cy="100" rx="14.5" ry="15" fill="#2B2B2B"/>
<circle cx="192" cy="82" r="13" fill="#2B2B2B"/>
<circle cx="47" cy="95" r="13" fill="#2B2B2B"/>
<circle cx="75" cy="95" r="13" fill="#2B2B2B"/>
<circle cx="76" cy="51" r="23" fill="#2B2B2B"/>
<circle cx="24" cy="79" r="23" fill="#2B2B2B"/>
<circle cx="195" cy="78" r="23" fill="#2B2B2B"/>
<circle cx="169" cy="62" r="23" fill="#2B2B2B"/>
<circle cx="115" cy="51" r="23" fill="#2B2B2B"/>
<circle cx="144" cy="56" r="23" fill="#2B2B2B"/>
</svg>
