<svg width="228" height="190" viewBox="0 0 228 190" fill="none" xmlns="http://www.w3.org/2000/svg">
<path fill-rule="evenodd" clip-rule="evenodd" d="M8 143.116C11.3808 87.622 57.4572 43.6613 113.801 43.6613C169.971 43.6613 215.937 87.3513 219.57 142.602C215.511 143.746 211.253 144.414 206.86 144.542C206.827 144.543 206.801 144.569 206.801 144.602C206.801 144.635 206.775 144.661 206.742 144.661H155.668C153.115 144.661 150.972 142.737 150.697 140.199L144.801 85.6612V139.661C144.801 142.423 142.563 144.661 139.801 144.661H20.8505C20.8233 144.661 20.8013 144.639 20.8013 144.612C20.8013 144.585 20.7789 144.562 20.7516 144.563C20.6016 144.564 20.4515 144.565 20.3013 144.565C16.0649 144.565 11.9458 144.063 8 143.116Z" fill="#2B2B2B"/>
<path d="M132.588 31.4354C124.238 32.6969 116.107 40.1149 116.341 51.0831" stroke="#2B2B2B" stroke-width="3"/>
<path d="M105.801 31.4354C105.801 38.1021 110.841 45.3243 119.801 46.4354" stroke="#2B2B2B" stroke-width="3"/>
</svg>
