<svg width="228" height="190" viewBox="0 0 228 190" fill="none" xmlns="http://www.w3.org/2000/svg">
<path fill-rule="evenodd" clip-rule="evenodd" d="M21 144.788V188.399C10.4882 176.03 4 159.04 4 140.29C4 110.096 20.8267 84.4646 44.187 75.3465C46.1432 73.1257 48.2036 70.9989 50.3607 68.9739C65.2747 49.4407 96.4531 36 132.5 36C183.034 36 224 62.4152 224 95C224 107.887 217.592 119.809 206.719 129.514C206.905 131.915 207 134.342 207 136.79V144.769C206.502 144.783 206.002 144.79 205.5 144.79C204.992 144.79 204.486 144.783 203.982 144.769C203.994 144.278 204 143.785 204 143.29C204 117.057 186.763 95.7905 165.5 95.7905C158.453 95.7905 151.847 98.1267 146.166 102.206C145.368 102.376 144.61 102.689 143.939 103.163C135.354 109.225 124.847 112.79 113.5 112.79C102.337 112.79 91.9873 109.339 83.4797 103.456C77.4444 98.6075 70.2388 95.7905 62.5 95.7905C41.237 95.7905 24 117.057 24 143.29C24 143.753 24.0054 144.215 24.016 144.675C23.0181 144.741 22.0125 144.779 21 144.788Z" fill="#2B2B2B"/>
<path d="M70.453 88.12C67.333 80.2731 58.266 74.0335 47.6359 76.7455" stroke="#BCBCBC" stroke-width="3"/>
</svg>
