<svg width="202" height="70" viewBox="0 0 202 70" fill="none" xmlns="http://www.w3.org/2000/svg">
<path d="M6 26.5552H21M90 30.439C90.1965 30.4801 90.3933 30.5215 90.5906 30.5632C97.6439 32.0546 104.923 32.1476 112 30.7749V30.7749M198 26.5552H181M51.5 5C89.2316 2.31652 110.703 2.38717 149.5 5" stroke="#2B2B2B" stroke-width="6"/>
<path d="M23.2056 45.4312L19.7173 25.2633C18.7455 19.6447 22.2239 14.1692 27.8049 13.0002C48.866 8.58846 66.819 8.97275 86.1781 14.6147C91.3257 16.1149 94.2984 21.3684 93.339 26.6436L88.0904 55.5049C86.8799 62.1615 81.0822 67 74.3164 67H48.8252C36.1755 67 25.3615 57.8958 23.2056 45.4312Z" stroke="#2B2B2B" stroke-width="6"/>
<path d="M178.794 45.4312L182.283 25.2633C183.255 19.6447 179.776 14.1692 174.195 13.0002C153.134 8.58846 135.181 8.97275 115.822 14.6147C110.674 16.1149 107.702 21.3684 108.661 26.6436L113.91 55.5049C115.12 62.1615 120.918 67 127.684 67H153.175C165.825 67 176.639 57.8958 178.794 45.4312Z" stroke="#2B2B2B" stroke-width="6"/>
</svg>
