<svg width="204" height="63" viewBox="0 0 204 63" fill="none" xmlns="http://www.w3.org/2000/svg">
<path d="M1 13C11.736 10.5375 21.1857 8.72015 30 7.55518M91 10.439V10.439C98.445 11.9978 106.159 12.2746 113.63 10.8462C113.754 10.8224 113.878 10.7986 114 10.7749M203 13C192.264 10.5375 182.814 8.72015 174 7.55518" stroke="#2B2B2B" stroke-width="6"/>
<path d="M29.2056 38.4312L25.7173 18.2633C24.7455 12.6447 28.2237 7.16821 33.793 5.94492C53.8359 1.54251 67.5578 2.00619 86.0548 7.80747C90.7807 9.28967 93.7234 13.9316 93.3244 18.8684L91.9321 36.0946C90.8408 49.5978 79.5639 60 66.0167 60H54.8252C42.1755 60 31.3615 50.8958 29.2056 38.4312Z" stroke="#2B2B2B" stroke-width="6"/>
<path d="M174.794 38.4312L178.283 18.2633C179.255 12.6447 175.776 7.16821 170.207 5.94492C150.164 1.54251 136.442 2.00619 117.945 7.80747C113.219 9.28967 110.277 13.9316 110.676 18.8684L112.068 36.0946C113.159 49.5978 124.436 60 137.983 60H149.175C161.825 60 172.639 50.8958 174.794 38.4312Z" stroke="#2B2B2B" stroke-width="6"/>
</svg>
