<svg width="123" height="43" viewBox="0 0 123 43" fill="none" xmlns="http://www.w3.org/2000/svg">
<rect x="17" y="25" width="13" height="14" rx="6.5" fill="#2B2B2B"/>
<rect x="94" y="25" width="13" height="14" rx="6.5" fill="#2B2B2B"/>
<path d="M5 14C7.3442 11.6558 10.4347 9.92218 13.8827 8.79915M43 14C38.0858 9.08576 29.8919 6.85483 22 7.3072M1 8L7.5 11.5M3 5L11 10M7 3L13.8827 8.79915M13.8827 8.79915C14.7352 8.52148 15.6096 8.28113 16.5 8.07811M11.8827 1L16.5 8.07811M16.5 8.07811C17.3213 7.89085 18.1561 7.73534 19 7.6116M17 1L19 7.6116M19 7.6116C19.9901 7.46641 20.9926 7.36494 22 7.3072M22 3V7.3072" stroke="#2B2B2B" stroke-width="3"/>
<path d="M118 17C115.656 14.6558 112.565 12.9222 109.117 11.7992M80 17C84.9142 12.0858 93.1081 9.85483 101 10.3072M122 11L115.5 14.5M120 8L112 13M116 6L109.117 11.7992M109.117 11.7992C108.265 11.5215 107.39 11.2811 106.5 11.0781M111.117 4L106.5 11.0781M106.5 11.0781C105.679 10.8908 104.844 10.7353 104 10.6116M106 4L104 10.6116M104 10.6116C103.01 10.4664 102.007 10.3649 101 10.3072M101 6V10.3072" stroke="#2B2B2B" stroke-width="3"/>
</svg>
