<svg width="375" height="811" viewBox="0 0 375 811" fill="none" xmlns="http://www.w3.org/2000/svg">
<path d="M339.353 1.99877C191.753 151.906 176.853 332.961 187.853 404.75C224.925 261.337 329.626 157.623 377.854 123.279V0H341.354L339.353 1.99877Z" fill="#66A8A6"/>
<path d="M377.5 195.38C275.9 252.145 211.167 355.281 191.5 399.754C259.9 332.195 344 295.318 377.5 285.324V195.38Z" fill="#87B39B"/>
<path d="M378 327.798C294 340.19 217.667 384.263 190 404.75C262.8 379.966 345.667 386.762 378 393.258V327.798Z" fill="#F16C68"/>
<path d="M378 425.23C283.6 394.049 216 397.913 194 403.743C258 412.937 343.333 471.201 378 499.184V425.23Z" fill="#ECB65F"/>
<path d="M377.5 564.152C311.1 469.411 224.833 419.075 190 405.75C308.986 537.016 333.855 629.431 341 811H377.5V564.152Z" fill="#67A7A6"/>
<path d="M4 520.679C84.8 494.695 159.667 433.233 187 405.75C151.8 501.691 50.3333 581.974 4 610.124V520.679Z" fill="#ECB65F"/>
<path d="M130 811C220.8 660.293 207.5 479.371 189.5 407.749C230.5 459.55 302.8 612.722 264 811H130Z" fill="#81B698"/>
<path d="M3 681.08C123.4 591.935 177.5 459.717 189.5 404.75C207.02 619.67 86.4364 743.148 34 810.001H3V681.08Z" fill="#E97068"/>
<path d="M-0.233114 419.741C64.1669 436.531 149.934 418.742 184.767 407.749C87.9669 464.114 21.1002 480.537 -0.233114 481.703C-1.56645 462.382 -3.43311 422.939 -0.233114 419.741Z" fill="#67A7A6"/>
<path d="M115.443 0C76.2426 212.269 147.109 354.282 187.443 398.754C143.843 241.651 206.276 67.4584 242.943 0H115.443Z" fill="#ECBB5F"/>
<path d="M183.5 399.254C57.1001 285.324 30.5001 85.6139 33.0001 0H4V252.844C64.4 331.596 148.833 383.264 183.5 399.254Z" fill="#F16C68"/>
<path d="M3 309.809C95.8 380.565 163.667 401.253 186 402.752C111.2 410.747 32.8333 393.757 3 384.263V309.809Z" fill="#8CB197"/>
</svg>
