<svg width="55" height="23" viewBox="0 0 55 23" fill="none" xmlns="http://www.w3.org/2000/svg">
<path d="M54 8.99999C47.8421 6.91661 44.1023 4.70766 38.2175 3.16423C34.8748 2.28752 31.4189 5.20644 28 5.2099C24.4854 5.21347 21.01 2.32531 17.7368 3.16423C11.2911 4.81631 7.47368 6.91661 2 9" stroke="#2B2B2B" stroke-width="6"/>
<path d="M37 13C34.6348 17.1287 21.0872 16.8692 19 13" stroke="#2B2B2B" stroke-width="3"/>
<path d="M9 5L11.2565 20.0434C11.4187 21.1249 12.9504 21.1986 13.2156 20.1376L17 5" stroke="#2B2B2B" stroke-width="3"/>
<path d="M46 5L43.7435 20.0434C43.5813 21.1249 42.0496 21.1986 41.7844 20.1376L38 5" stroke="#2B2B2B" stroke-width="3"/>
</svg>
