<svg width="256" height="69" viewBox="0 0 256 69" fill="none" xmlns="http://www.w3.org/2000/svg">
<path d="M26.5022 7.17944C13.9893 3.78969 2.10423 14.3399 3.9864 27.1665L5.63053 38.371C7.08744 48.2996 13.9305 56.6011 23.3985 59.926L35 64L35 9.48148L26.5022 7.17944Z" fill="#BCBCBC" stroke="#2B2B2B" stroke-width="6"/>
<path d="M16 14L22.8944 15.2535C25.2719 15.6858 27 17.7565 27 20.1729V41.5" stroke="#2B2B2B" stroke-width="3"/>
<path d="M27 24.2543C22.1559 23.6363 19.7889 24.1171 16 26" stroke="#2B2B2B" stroke-width="3"/>
<path d="M229.498 7.17944C242.011 3.78969 253.896 14.3399 252.014 27.1665L250.369 38.371C248.913 48.2996 242.07 56.6011 232.601 59.926L221 64L221 9.48148L229.498 7.17944Z" fill="#BCBCBC" stroke="#2B2B2B" stroke-width="6"/>
<path d="M240 14L233.106 15.2535C230.728 15.6858 229 17.7565 229 20.1729V41.5" stroke="#2B2B2B" stroke-width="3"/>
<path d="M229 24.2543C233.844 23.6363 236.211 24.1171 240 26" stroke="#2B2B2B" stroke-width="3"/>
</svg>
