<svg width="256" height="58" viewBox="0 0 256 58" fill="none" xmlns="http://www.w3.org/2000/svg">
<path d="M222.514 7.18488C234.129 3.46816 246 12.1336 246 24.3285L246 25.9607C246 37.7021 238.412 48.0976 227.229 51.6761L221 53.6694L221 7.66937L222.514 7.18488Z" fill="#BCBCBC" stroke="#2B2B2B" stroke-width="6"/>
<path d="M33.486 7.18488C21.8712 3.46816 10 12.1336 10 24.3285L10 25.9607C10 37.7021 17.5882 48.0976 28.7711 51.6761L35 53.6694L35 7.66937L33.486 7.18488Z" fill="#BCBCBC" stroke="#2B2B2B" stroke-width="6"/>
<path d="M240 14L238.853 14.2085C233.147 15.2459 229 20.2155 229 26.0149V41.5" stroke="#2B2B2B" stroke-width="3"/>
<path d="M229 24.2543C233.844 23.6363 236.211 24.1171 240 26" stroke="#2B2B2B" stroke-width="3"/>
<path d="M16 14L17.1466 14.2085C22.8525 15.2459 27 20.2155 27 26.0149V41.5" stroke="#2B2B2B" stroke-width="3"/>
<path d="M27 24.2543C22.1559 23.6363 19.7889 24.1171 16 26" stroke="#2B2B2B" stroke-width="3"/>
</svg>
