<svg width="256" height="67" viewBox="0 0 256 67" fill="none" xmlns="http://www.w3.org/2000/svg">
<path fill-rule="evenodd" clip-rule="evenodd" d="M251 24.1069C251 12.0749 239.423 3.43035 227.886 6.84849L221 8.88891V60L226.809 58.279C229.363 61.6722 233.425 63.8663 238 63.8663C245.732 63.8663 252 57.5983 252 49.8663C252 46.5881 250.873 43.5731 248.986 41.1874C250.29 38.007 251 34.5432 251 30.9509L251 24.1069Z" fill="#BCBCBC"/>
<path d="M227.886 6.84849L228.739 9.72488L227.886 6.84849ZM251 24.1069H254H251ZM221 8.88891H218V6.64888L220.148 6.01252L221 8.88891ZM221 60L221.852 62.8764L218 64.0178V60H221ZM226.809 58.279L225.956 55.4026L227.953 54.811L229.205 56.4745L226.809 58.279ZM248.986 41.1874L246.633 43.0487L245.545 41.6726L246.21 40.0493L248.986 41.1874ZM251 30.9509H248H251ZM227.034 3.9721C240.493 -0.0157394 254 10.0696 254 24.1069H248C248 14.0802 238.352 6.87643 228.739 9.72488L227.034 3.9721ZM220.148 6.01252L227.034 3.9721L228.739 9.72488L221.852 11.7653L220.148 6.01252ZM218 60V8.88891H224V60H218ZM227.661 61.1554L221.852 62.8764L220.148 57.1236L225.956 55.4026L227.661 61.1554ZM229.205 56.4745C231.218 59.1474 234.408 60.8663 238 60.8663V66.8663C232.443 66.8663 227.509 64.197 224.412 60.0834L229.205 56.4745ZM238 60.8663C244.075 60.8663 249 55.9414 249 49.8663H255C255 59.2551 247.389 66.8663 238 66.8663V60.8663ZM249 49.8663C249 47.2876 248.116 44.9235 246.633 43.0487L251.339 39.3262C253.63 42.2227 255 45.8887 255 49.8663H249ZM254 30.9509C254 34.9404 253.211 38.7904 251.762 42.3256L246.21 40.0493C247.369 37.2237 248 34.146 248 30.9509H254ZM254 24.1069L254 30.9509H248L248 24.1069H254Z" fill="#2B2B2B"/>
<circle cx="239" cy="51" r="6" fill="#2B2B2B"/>
<path d="M240 14L233.106 15.2535C230.728 15.6858 229 17.7565 229 20.1729V41.5" stroke="#2B2B2B" stroke-width="3"/>
<path fill-rule="evenodd" clip-rule="evenodd" d="M3 23.6816C3 11.7778 14.3481 3.15226 25.8176 6.33824L35 8.88891V60L28.3771 58.1603C25.8361 61.6968 21.687 64 17 64C9.26801 64 3 57.732 3 50C3 47.0184 3.93209 44.2545 5.52078 41.9837C3.89538 38.4952 3 34.6244 3 30.5888L3 23.6816Z" fill="#BCBCBC"/>
<path d="M25.8176 6.33824L26.6205 3.44769L25.8176 6.33824ZM3 23.6816H6H3ZM35 8.88891H38V6.60865L35.8029 5.99836L35 8.88891ZM35 60L34.1971 62.8906L38 63.9469V60H35ZM28.3771 58.1603L29.1801 55.2698L27.1626 54.7094L25.9408 56.4098L28.3771 58.1603ZM5.52078 41.9837L7.9789 43.7035L8.97102 42.2854L8.24009 40.7167L5.52078 41.9837ZM3 30.5888H1.43051e-06H3ZM26.6205 3.44769C13.2394 -0.269287 4.76837e-07 9.7938 1.19209e-06 23.6816H6C6 13.7617 15.4567 6.57381 25.0147 9.2288L26.6205 3.44769ZM35.8029 5.99836L26.6205 3.44769L25.0147 9.2288L34.1971 11.7795L35.8029 5.99836ZM38 60V8.88891H32V60H38ZM27.5742 61.0509L34.1971 62.8906L35.8029 57.1095L29.1801 55.2698L27.5742 61.0509ZM25.9408 56.4098C23.9392 59.1955 20.6804 61 17 61V67C22.6937 67 27.733 64.198 30.8134 59.9109L25.9408 56.4098ZM17 61C10.9249 61 6 56.0752 6 50H0C0 59.3889 7.61116 67 17 67V61ZM6 50C6 47.6533 6.73145 45.4865 7.9789 43.7035L3.06266 40.2639C1.13272 43.0224 0 46.3834 0 50H6ZM1.43051e-06 30.5888C1.66893e-06 35.0709 0.994905 39.3734 2.80147 43.2507L8.24009 40.7167C6.79586 37.617 6 34.1779 6 30.5888H1.43051e-06ZM1.19209e-06 23.6816L1.43051e-06 30.5888H6L6 23.6816H1.19209e-06Z" fill="#2B2B2B"/>
<path d="M229 24.2543C233.844 23.6363 236.211 24.1171 240 26" stroke="#2B2B2B" stroke-width="3"/>
<path d="M16 14L22.8944 15.2535C25.2719 15.6858 27 17.7565 27 20.1729V41.5" stroke="#2B2B2B" stroke-width="3"/>
<path d="M27 24.2543C22.1559 23.6363 19.7889 24.1171 16 26" stroke="#2B2B2B" stroke-width="3"/>
<circle cx="16" cy="51" r="6" fill="#2B2B2B"/>
</svg>
