<svg width="262" height="58" viewBox="0 0 262 58" fill="none" xmlns="http://www.w3.org/2000/svg">
<path fill-rule="evenodd" clip-rule="evenodd" d="M241.784 4.58641C241.502 6.09761 241.642 7.70536 242.278 9.22993C243.395 11.9042 245.767 13.6726 248.425 14.1364C248.235 15.5295 248.403 16.9899 248.984 18.381C250.63 22.3232 255.004 24.2969 259 23.025V24.4751C259 37.0689 250.293 47.99 238.016 50.7962L224 54L224 7.99995L236.989 5.031C238.608 4.66091 240.217 4.52076 241.784 4.58641Z" fill="#BCBCBC"/>
<path d="M241.784 4.58641L244.733 5.13704L245.368 1.73395L241.909 1.58904L241.784 4.58641ZM242.278 9.22993L245.047 8.07405V8.07405L242.278 9.22993ZM248.425 14.1364L251.398 14.5407L251.787 11.6778L248.941 11.1811L248.425 14.1364ZM248.984 18.381L246.216 19.5369V19.5369L248.984 18.381ZM259 23.025H262V18.9217L258.09 20.1663L259 23.025ZM238.016 50.7962L238.685 53.7208L238.016 50.7962ZM224 54H221L221 57.763L224.668 56.9245L224 54ZM224 7.99995L223.332 5.07538L221 5.6083V7.99995L224 7.99995ZM236.989 5.031L237.658 7.95558L236.989 5.031ZM238.835 4.03578C238.449 6.10371 238.642 8.30588 239.51 10.3858L245.047 8.07405C244.642 7.10485 244.555 6.09151 244.733 5.13704L238.835 4.03578ZM239.51 10.3858C241.037 14.0443 244.285 16.4593 247.909 17.0917L248.941 11.1811C247.249 10.8858 245.752 9.76412 245.047 8.07405L239.51 10.3858ZM245.452 13.7321C245.193 15.6397 245.423 17.6399 246.216 19.5369L251.752 17.2251C251.383 16.3399 251.278 15.4193 251.398 14.5407L245.452 13.7321ZM246.216 19.5369C248.466 24.927 254.445 27.6232 259.91 25.8837L258.09 20.1663C255.564 20.9706 252.794 19.7194 251.752 17.2251L246.216 19.5369ZM256 23.025V24.4751H262V23.025H256ZM256 24.4751C256 35.6695 248.261 45.3773 237.348 47.8717L238.685 53.7208C252.326 50.6028 262 38.4682 262 24.4751H256ZM237.348 47.8717L223.332 51.0754L224.668 56.9245L238.685 53.7208L237.348 47.8717ZM227 54L227 7.99995L221 7.99995L221 54H227ZM224.668 10.9245L237.658 7.95558L236.321 2.10643L223.332 5.07538L224.668 10.9245ZM237.658 7.95558C239.015 7.64528 240.356 7.52925 241.658 7.58378L241.909 1.58904C240.077 1.51227 238.201 1.67653 236.321 2.10643L237.658 7.95558Z" fill="#2B2B2B"/>
<path d="M240 14L235.787 15.0532C233.561 15.6096 232 17.6095 232 19.9039V41.5" stroke="#2B2B2B" stroke-width="3"/>
<path d="M232 24.2543C236.844 23.6363 239.211 24.1171 243 26" stroke="#2B2B2B" stroke-width="3"/>
<path d="M25.0108 5.03105C13.7414 2.45518 3 11.0184 3 22.5785L3 24.4751C3 37.0689 11.7066 47.9901 23.9837 50.7963L38 54L38 8L25.0108 5.03105Z" fill="#BCBCBC" stroke="#2B2B2B" stroke-width="6"/>
<path d="M19 14L25.8944 15.2535C28.2719 15.6858 30 17.7565 30 20.1729V41.5" stroke="#2B2B2B" stroke-width="3"/>
<path d="M30 24.2543C25.1559 23.6363 22.7889 24.1171 19 26" stroke="#2B2B2B" stroke-width="3"/>
</svg>
