<svg width="256" height="63" viewBox="0 0 256 63" fill="none" xmlns="http://www.w3.org/2000/svg">
<path fill-rule="evenodd" clip-rule="evenodd" d="M13.2791 20.1636C11.7763 10.7714 20.7083 3.09607 29.7674 5.99499L35 7.66941L35 53.6694L16.6763 28.3653C14.9168 25.9354 13.753 23.126 13.2791 20.1636ZM242.721 20.1636C244.224 10.7714 235.292 3.09607 226.233 5.99499L221 7.66941V53.6694L239.324 28.3653C241.083 25.9354 242.247 23.126 242.721 20.1636Z" fill="#BCBCBC"/>
<path d="M29.7674 5.99499L30.6818 3.13772L29.7674 5.99499ZM13.2791 20.1636L16.2414 19.6896L13.2791 20.1636ZM35 7.66941L38 7.66941V5.47956L35.9143 4.81214L35 7.66941ZM35 53.6694L32.5702 55.4289L38 62.9273V53.6694H35ZM16.6763 28.3653L14.2465 30.1248H14.2465L16.6763 28.3653ZM226.233 5.99499L227.147 8.85226V8.85226L226.233 5.99499ZM242.721 20.1636L245.683 20.6376V20.6376L242.721 20.1636ZM221 7.66941L220.086 4.81214L218 5.47956V7.66941H221ZM221 53.6694H218V62.9273L223.43 55.4289L221 53.6694ZM239.324 28.3653L241.754 30.1248V30.1248L239.324 28.3653ZM30.6818 3.13772C19.4927 -0.442776 8.46068 9.03714 10.3167 20.6376L16.2414 19.6896C15.092 12.5057 21.9239 6.63492 28.8531 8.85226L30.6818 3.13772ZM35.9143 4.81214L30.6818 3.13772L28.8531 8.85226L34.0857 10.5267L35.9143 4.81214ZM38 53.6694L38 7.66941L32 7.66941L32 53.6694H38ZM14.2465 30.1248L32.5702 55.4289L37.4298 51.9099L19.1061 26.6058L14.2465 30.1248ZM10.3167 20.6376C10.865 24.0643 12.2111 27.3141 14.2465 30.1248L19.1061 26.6058C17.6224 24.5568 16.6411 22.1877 16.2414 19.6896L10.3167 20.6376ZM227.147 8.85226C234.076 6.63492 240.908 12.5057 239.759 19.6896L245.683 20.6376C247.539 9.03714 236.507 -0.442777 225.318 3.13772L227.147 8.85226ZM221.914 10.5267L227.147 8.85226L225.318 3.13772L220.086 4.81214L221.914 10.5267ZM224 53.6694V7.66941H218V53.6694H224ZM236.894 26.6058L218.57 51.9099L223.43 55.4289L241.754 30.1248L236.894 26.6058ZM239.759 19.6896C239.359 22.1877 238.378 24.5568 236.894 26.6058L241.754 30.1248C243.789 27.3141 245.135 24.0643 245.683 20.6376L239.759 19.6896Z" fill="#2B2B2B"/>
<path d="M233 13L231.853 13.2085C226.147 14.2459 222 19.2155 222 25.0149V40.5" stroke="#2B2B2B" stroke-width="3"/>
<path d="M222 23.2543C226.844 22.6363 229.211 23.1171 233 25" stroke="#2B2B2B" stroke-width="3"/>
<path d="M23 12L24.1466 12.2085C29.8525 13.2459 34 18.2155 34 24.0149V39.5" stroke="#2B2B2B" stroke-width="3"/>
<path d="M34 22.2543C29.1559 21.6363 26.7889 22.1171 23 24" stroke="#2B2B2B" stroke-width="3"/>
</svg>
