<svg width="256" height="70" viewBox="0 0 256 70" fill="none" xmlns="http://www.w3.org/2000/svg">
<path fill-rule="evenodd" clip-rule="evenodd" d="M18.3349 18.5122C16.8661 9.33252 25.9667 2.05607 34.5982 5.50867C34.8425 5.60638 35.0062 5.83895 35.0157 6.10188L36.9858 60.28C36.9918 60.4437 36.8108 60.546 36.6736 60.4566C29.5174 55.7894 24.5003 48.4785 22.7195 40.1225L19 22.6694L18.3349 18.5122ZM237.664 18.5205C239.133 9.33715 230.029 2.05781 221.394 5.51178C221.154 5.60791 220.991 5.83471 220.977 6.09316L218.021 60.2856C218.012 60.449 218.189 60.5558 218.33 60.4717C226.092 55.8142 231.571 48.1418 233.458 39.2881L237 22.6694L237.664 18.5205Z" fill="#BCBCBC"/>
<path d="M34.5982 5.50867L33.484 8.2941L33.484 8.2941L34.5982 5.50867ZM18.3349 18.5122L15.3725 18.9862L18.3349 18.5122ZM35.0157 6.10188L32.0177 6.21088L32.0177 6.21089L35.0157 6.10188ZM36.9858 60.28L39.9839 60.171L39.9839 60.171L36.9858 60.28ZM36.6736 60.4566L35.0348 62.9694L35.0349 62.9694L36.6736 60.4566ZM22.7195 40.1225L25.6536 39.4972L22.7195 40.1225ZM19 22.6694L16.0377 23.1434L16.0498 23.2194L16.0659 23.2947L19 22.6694ZM221.394 5.51178L222.508 8.29722L222.508 8.29721L221.394 5.51178ZM237.664 18.5205L240.626 18.9944V18.9944L237.664 18.5205ZM220.977 6.09316L217.981 5.92975V5.92977L220.977 6.09316ZM218.021 60.2856L221.016 60.4491V60.449L218.021 60.2856ZM218.33 60.4717L216.786 57.8992L216.786 57.8992L218.33 60.4717ZM233.458 39.2881L230.524 38.6628L233.458 39.2881ZM237 22.6694L239.934 23.2947L239.95 23.2194L239.962 23.1434L237 22.6694ZM35.7124 2.72324C24.9173 -1.59478 13.5356 7.50556 15.3725 18.9862L21.2972 18.0382C20.1966 11.1595 27.016 5.70691 33.484 8.2941L35.7124 2.72324ZM38.0137 5.99287C37.9611 4.54367 37.0588 3.26182 35.7124 2.72324L33.484 8.2941C32.6261 7.95095 32.0513 7.13423 32.0177 6.21088L38.0137 5.99287ZM39.9839 60.171L38.0137 5.99286L32.0177 6.21089L33.9878 60.389L39.9839 60.171ZM35.0349 62.9694C37.2089 64.3872 40.0782 62.765 39.9839 60.171L33.9878 60.389C33.9054 58.1223 36.4127 56.7048 38.3124 57.9437L35.0349 62.9694ZM19.7854 40.7478C21.7315 49.8795 27.2143 57.869 35.0348 62.9694L38.3125 57.9437C31.8205 53.7098 27.2691 47.0775 25.6536 39.4972L19.7854 40.7478ZM16.0659 23.2947L19.7854 40.7478L25.6536 39.4972L21.9341 22.0441L16.0659 23.2947ZM15.3725 18.9862L16.0377 23.1434L21.9623 22.1954L21.2972 18.0382L15.3725 18.9862ZM222.508 8.29721C228.98 5.70865 235.803 11.1641 234.702 18.0465L240.626 18.9944C242.464 7.51019 231.078 -1.59304 220.28 2.72635L222.508 8.29721ZM223.972 6.25658C223.923 7.1637 223.352 7.9598 222.508 8.29722L220.28 2.72634C218.956 3.25601 218.059 4.50572 217.981 5.92975L223.972 6.25658ZM221.016 60.449L223.972 6.25655L217.981 5.92977L215.025 60.1222L221.016 60.449ZM216.786 57.8992C218.708 56.7456 221.139 58.2105 221.016 60.4491L215.025 60.1222C214.885 62.6874 217.67 64.366 219.873 63.0441L216.786 57.8992ZM230.524 38.6628C228.811 46.7027 223.835 53.6698 216.786 57.8992L219.873 63.0441C228.349 57.9585 234.332 49.5809 236.392 39.9134L230.524 38.6628ZM234.066 22.0441L230.524 38.6628L236.392 39.9134L239.934 23.2947L234.066 22.0441ZM234.702 18.0465L234.038 22.1954L239.962 23.1434L240.626 18.9944L234.702 18.0465Z" fill="#2B2B2B"/>
<path d="M25 15V15C30.3505 16.1886 34.2896 20.8678 34.4655 26.3459L35 43" stroke="#2B2B2B" stroke-width="3"/>
<path d="M232.618 15.6881V15.6881C227.164 16.2368 222.7 20.4183 221.879 25.8374L219.382 42.3119" stroke="#2B2B2B" stroke-width="3"/>
<path d="M221.429 50.2455C226.322 49.3727 230.997 52.6321 231.87 57.5254C232.742 62.4188 229.483 67.0931 224.59 67.9658C221.31 68.5507 218.129 67.2796 216.125 64.9045" stroke="#2B2B2B" stroke-width="3"/>
</svg>
