<svg width="224" height="337" viewBox="0 0 224 337" fill="none" xmlns="http://www.w3.org/2000/svg">
<path fill-rule="evenodd" clip-rule="evenodd" d="M186.937 245.884C184.891 298.756 160.435 336.564 107.524 336.564C55.5163 336.564 26.5 294.5 14.2285 244.22C12.5354 244.712 -0.752466 174.451 0.983385 112.298C2.71924 50.1453 45.2858 0.563715 105.952 0.563721C165.633 0.563726 202.267 47.3765 207 109.5C211 162 209.5 208.5 186.937 245.884ZM105 266C150.287 266 187 214.737 187 151.5C187 88.2634 150.287 37 105 37C59.7127 37 23 88.2634 23 151.5C23 214.737 59.7127 266 105 266Z" fill="#2B2B2B"/>
<path fill-rule="evenodd" clip-rule="evenodd" d="M31.4653 100.061C53.6639 93.9661 78.4094 90.5638 104.5 90.5638C131.026 90.5638 156.161 94.0806 178.644 100.368C165.291 62.5762 137.331 36.5638 105 36.5638C72.7572 36.5638 44.8608 62.4352 31.4653 100.061Z" fill="#2B2B2B"/>
<path d="M174.796 260.214C181.506 255.258 187.083 248.157 191.282 242" stroke="white" stroke-width="3"/>
<path d="M36 242.5C45.029 265.28 70.2702 290.496 92.1146 296.076" stroke="white" stroke-width="3"/>
<path d="M105 39.5638C137.215 39.5638 164.591 65.4911 178 103.064" stroke="white" stroke-width="3"/>
<path d="M32 103.064C35.3945 93.5524 39.684 84.7872 44.7205 77" stroke="white" stroke-width="3"/>
</svg>
