<svg width="224" height="316" viewBox="0 0 224 316" fill="none" xmlns="http://www.w3.org/2000/svg">
<path fill-rule="evenodd" clip-rule="evenodd" d="M12.0554 109.64C33.1506 95.3482 58.6004 87 86 87H138C165.4 87 190.849 95.3482 211.945 109.64C210.172 55.9669 166.104 13 112 13C57.8961 13 13.8276 55.9669 12.0554 109.64Z" fill="#2B2B2B"/>
<path d="M4 104.733C4 97.029 8.66537 90.0446 15.8543 87.2764C86.0256 60.2565 131.818 60.3879 207.646 87.4556C215.088 90.112 220 97.2281 220 105.13V149.008C220 153.451 214.387 155.963 210.695 153.491C166.165 123.673 60.7322 120.344 13.2374 153.372C9.58938 155.909 4 153.451 4 149.008V104.733Z" fill="#2B2B2B"/>
<path d="M35.5 81.9999C64.3052 72.177 81.1591 69.4097 112.5 69.4999" stroke="white" stroke-width="3"/>
<path d="M15.5 98V140" stroke="white" stroke-width="3"/>
<path d="M32 90V105" stroke="white" stroke-width="3"/>
<path d="M206 120V135" stroke="white" stroke-width="3"/>
</svg>
